<?xml version="1.0" encoding="iso-8859-1"?>
<!-- Generator: Adobe Illustrator 18.1.1, SVG Export Plug-In . SVG Version: 6.00 Build 0)  -->
<svg version="1.1" id="Capa_1" xmlns="http://www.w3.org/2000/svg" xmlns:xlink="http://www.w3.org/1999/xlink" x="0px" y="0px"
	 viewBox="0 0 201.919 201.919" style="enable-background:new 0 0 201.919 201.919;" xml:space="preserve">
<g>
	<g>
		<path style="fill:#010002;" d="M189.196,41.325h-0.254v-0.057h-2.215v-4.463c0-6.75-5.483-12.24-12.24-12.24h-12.569
			c-6.753,0-12.24,5.49-12.24,12.24v4.463H55.565v-4.463c0-6.75-5.49-12.24-12.243-12.24H30.753c-6.75,0-12.24,5.49-12.24,12.24
			v4.52h-5.787C5.708,41.325,0,47.037,0,54.051v110.572c0,7.022,5.708,12.73,12.726,12.73h176.47c7.018,0,12.723-5.708,12.723-12.73
			V54.055C201.919,47.04,196.214,41.325,189.196,41.325z M30.753,28.101h12.569c4.806,0,8.711,3.905,8.711,8.707v4.463H22.042
			v-4.463C22.042,32.006,25.957,28.101,30.753,28.101z M161.918,28.101h12.569c4.803,0,8.711,3.905,8.711,8.707v4.463h-29.987
			v-4.463C153.211,32.006,157.119,28.101,161.918,28.101z M189.196,173.821H12.726c-5.075,0-9.198-4.126-9.198-9.194V54.055
			c0-5.068,4.123-9.19,9.198-9.19h8.908l0.408-0.057h29.991v0.057h100.759l0.415-0.057h29.987v0.057h6.002
			c5.064,0,9.194,4.123,9.194,9.19v110.572C198.394,169.695,194.26,173.821,189.196,173.821z"/>
		<rect x="154.549" y="64.452" style="fill:#010002;" width="27.224" height="3.532"/>
		<polygon style="fill:#010002;" points="38.355,53.039 34.826,53.039 34.826,64.452 22.973,64.452 22.973,67.984 34.826,67.984 
			34.826,80.277 38.355,80.277 38.355,67.984 50.204,67.984 50.204,64.452 38.355,64.452 		"/>
	</g>
</g>
<g>
</g>
<g>
</g>
<g>
</g>
<g>
</g>
<g>
</g>
<g>
</g>
<g>
</g>
<g>
</g>
<g>
</g>
<g>
</g>
<g>
</g>
<g>
</g>
<g>
</g>
<g>
</g>
<g>
</g>
</svg>
